<svg xmlns="http://www.w3.org/2000/svg" fill="none" viewBox="-1.5 -1.5 44 44" height="44" width="44"><g id="bag-suitcase-2--product-business-briefcase"><path id="Vector" stroke="#000" stroke-linecap="round" stroke-linejoin="round" d="M36.607142857142854 10.25h-32.214285714285715c-1.6174060714285714 0 -2.9285714285714284 1.31118 -2.9285714285714284 2.9285714285714284v23.428571428571427c0 1.6174499999999998 1.311165357142857 2.9285714285714284 2.9285714285714284 2.9285714285714284h32.214285714285715c1.6174499999999998 0 2.9285714285714284 -1.3111214285714285 2.9285714285714284 -2.9285714285714284v-23.428571428571427c0 -1.6173914285714284 -1.3111214285714285 -2.9285714285714284 -2.9285714285714284 -2.9285714285714284Z" stroke-width="3"></path><path id="Vector_2" stroke="#000" stroke-linecap="round" stroke-linejoin="round" d="M29.285714285714285 10.25v-5.857142857142857c0 -0.7767157142857143 -0.30855428571428567 -1.521597857142857 -0.8577492857142857 -2.0708133571428573C27.878740714285712 1.7728312142857143 27.13385857142857 1.4642857142857142 26.357142857142854 1.4642857142857142H14.642857142857142c-0.7767157142857143 0 -1.521597857142857 0.3085455 -2.0708221428571427 0.8577580714285714C12.02284 2.871259285714286 11.714285714285714 3.6161414285714284 11.714285714285714 4.392857142857142v5.857142857142857" stroke-width="3"></path></g></svg>