<svg xmlns="http://www.w3.org/2000/svg" fill="none" viewBox="-1.5 -1.5 44 44" height="44" width="44"><g id="no-poverty"><path id="Ellipse 227" stroke="#000" stroke-linecap="round" stroke-linejoin="round" d="M25.771428571428572 7.324357142857142a5.271428571428571 5.271428571428571 0 1 0 10.542857142857143 0 5.271428571428571 5.271428571428571 0 1 0 -10.542857142857143 0" stroke-width="3"></path><path id="Ellipse 228" stroke="#000" stroke-linecap="round" stroke-linejoin="round" d="M38.95 25.775089285714284v-2.635772857142857c0 -4.3670857142857145 -3.540057142857143 -7.907318571428571 -7.9071428571428575 -7.907318571428571 -2.977976428571428 0 -5.571431428571428 1.6461792857142856 -6.920038571428571 4.0781528571428565" stroke-width="3"></path><path id="Ellipse 227_2" stroke="#000" stroke-linecap="round" stroke-linejoin="round" d="M4.685714285714286 7.324357142857142a5.271428571428571 5.271428571428571 0 1 0 10.542857142857143 0 5.271428571428571 5.271428571428571 0 1 0 -10.542857142857143 0" stroke-width="3"></path><path id="Ellipse 228_2" stroke="#000" stroke-linecap="round" stroke-linejoin="round" d="M2.0498564999999997 25.775089285714284v-2.635772857142857c0 -4.3670857142857145 3.5402299285714283 -7.907318571428571 7.907315642857142 -7.907318571428571 2.977917857142857 0 5.571343571428571 1.6461792857142856 6.919950714285713 4.0781528571428565" stroke-width="3"></path><path id="Ellipse 227_3" stroke="#000" stroke-linecap="round" stroke-linejoin="round" d="M15.231499999999999 23.132785714285713a5.271428571428571 5.271428571428571 0 1 0 10.542857142857143 0 5.271428571428571 5.271428571428571 0 1 0 -10.542857142857143 0" stroke-width="3"></path><path id="Ellipse 228_3" stroke="#000" stroke-linecap="round" stroke-linejoin="round" d="M28.410832857142854 38.94677857142857c0 -4.3670857142857145 -3.540232857142857 -7.9071428571428575 -7.907318571428571 -7.9071428571428575s-7.907289285714286 3.540057142857143 -7.907289285714286 7.9071428571428575" stroke-width="3"></path></g></svg>