<svg xmlns="http://www.w3.org/2000/svg" fill="none" viewBox="-1.5 -1.5 44 44" height="44" width="44"><g id="user-circle-single--circle-geometric-human-person-single-user"><path id="Vector" stroke="#000" stroke-linecap="round" stroke-linejoin="round" d="M20.5 23.428571428571427c4.043507857142857 0 7.321428571428571 -3.2779207142857136 7.321428571428571 -7.321428571428571S24.543507857142856 8.785714285714285 20.5 8.785714285714285 13.178571428571427 12.063635 13.178571428571427 16.107142857142858 16.456492142857144 23.428571428571427 20.5 23.428571428571427Z" stroke-width="3"></path><path id="Vector_2" stroke="#000" stroke-linecap="round" stroke-linejoin="round" d="M7.994941428571428 34.85c1.3068457142857142 -2.1451785714285716 3.143557857142857 -3.9181357142857145 5.333543571428571 -5.148135714285714 2.189985714285714 -1.2303514285714285 4.659591428571429 -1.8765114285714284 7.171456428571427 -1.8765114285714284 2.511865 0 4.981470714285714 0.64616 7.171456428571427 1.8765114285714284 2.190073571428571 1.23 4.026580714285714 3.002957142857143 5.333602142857142 5.148135714285714" stroke-width="3"></path><path id="Vector_3" stroke="#000" stroke-linecap="round" stroke-linejoin="round" d="M20.5 39.535714285714285c10.513278571428572 0 19.035714285714285 -8.522435714285713 19.035714285714285 -19.035714285714285C39.535714285714285 9.986867857142856 31.013278571428568 1.4642857142857142 20.5 1.4642857142857142 9.986867857142856 1.4642857142857142 1.4642857142857142 9.986867857142856 1.4642857142857142 20.5c0 10.513278571428572 8.522582142857141 19.035714285714285 19.035714285714285 19.035714285714285Z" stroke-width="3"></path></g></svg>